<?xml version="1.0" encoding="UTF-8" standalone="no"?>
<!DOCTYPE svg PUBLIC "-//W3C//DTD SVG 20010904//EN"
              "http://www.w3.org/TR/2001/REC-SVG-20010904/DTD/svg10.dtd">

<svg xmlns="http://www.w3.org/2000/svg"
     width="0.19in" height="0.04in"
     viewBox="0 0 57 12">
  <path id="Border"
        fill="#4a4a4a" stroke="none" stroke-width="1"
        d="M 1.60,1.02
           C 0.02,3.23 -0.14,4.17 0.06,6.98
             0.48,12.79 4.37,11.99 9.00,12.00
             9.00,12.00 48.00,12.00 48.00,12.00
             49.99,12.00 53.81,12.23 55.40,10.98
             57.56,9.27 57.56,2.73 55.40,1.02
             53.81,-0.23 49.99,0.00 48.00,0.00
             48.00,0.00 17.00,0.00 17.00,0.00
             12.33,0.00 5.82,-0.78 1.60,1.02 Z
           M 56.00,1.00
           C 56.00,1.00 56.00,11.00 56.00,11.00
             56.00,11.00 1.00,11.00 1.00,11.00
             1.00,11.00 1.00,1.00 1.00,1.00
             1.00,1.00 56.00,1.00 56.00,1.00 Z" />
  <path id="Light"
        fill="#adadad" stroke="none" stroke-width="1"
        d="M 1.00,1.00
           C 1.00,1.00 1.00,11.00 1.00,11.00
             1.00,11.00 2.00,2.00 2.00,2.00
             2.00,2.00 56.00,2.00 56.00,2.00
             56.00,2.00 38.00,1.00 38.00,1.00
             38.00,1.00 1.00,1.00 1.00,1.00 Z" />
  <path id="Content"
        fill="#a5a5a5" stroke="none" stroke-width="1"
        d="M 2.00,2.00
           C 2.00,2.00 2.00,10.00 2.00,10.00
             2.00,10.00 48.00,10.00 48.00,10.00
             54.89,9.87 54.92,8.42 55.00,2.00
             55.00,2.00 2.00,2.00 2.00,2.00 Z" />
  <path id="Dark"
        fill="#6c6c6c" stroke="none" stroke-width="1"
        d="M 55.00,2.00
           C 54.74,9.43 53.12,9.95 46.00,10.00
             46.00,10.00 2.00,10.00 2.00,10.00
             2.00,10.00 20.00,11.00 20.00,11.00
             20.00,11.00 56.00,11.00 56.00,11.00
             56.00,11.00 55.00,2.00 55.00,2.00 Z" />
</svg>
